<svg width="24" height="24" viewBox="0 0 24 24" fill="none" xmlns="http://www.w3.org/2000/svg">
<path d="M12 2.00049L10.6985 7.20648C10.4445 8.22234 10.3176 8.73027 10.0531 9.14358C9.81915 9.50916 9.50868 9.81964 9.14309 10.0536C8.72978 10.318 8.22185 10.445 7.20599 10.699L2 12.0005L7.20599 13.302C8.22185 13.556 8.72978 13.6829 9.14309 13.9474C9.50868 14.1813 9.81915 14.4918 10.0531 14.8574C10.3176 15.2707 10.4445 15.7786 10.6985 16.7945L12 22.0005L13.3015 16.7945C13.5555 15.7786 13.6824 15.2707 13.9469 14.8574C14.1808 14.4918 14.4913 14.1813 14.8569 13.9474C15.2702 13.6829 15.7782 13.556 16.794 13.302L22 12.0005L16.794 10.699C15.7782 10.445 15.2702 10.318 14.8569 10.0536C14.4913 9.81964 14.1808 9.50916 13.9469 9.14358C13.6824 8.73027 13.5555 8.22234 13.3015 7.20648L12 2.00049Z" stroke="#FF5555" stroke-width="2" stroke-linecap="round" stroke-linejoin="round"/>
</svg>
