<svg width="20" height="20" viewBox="0 0 20 20" fill="none" xmlns="http://www.w3.org/2000/svg">
<path d="M18.5 14.0005H6M6 14.0005V1.50049M6 14.0005L1.5 18.5005M1.5 6.00049H14M14 6.00049V18.5005M14 6.00049L18.5 1.50049M19 13.3377V1.80049C19 1.52046 19 1.38045 18.9455 1.27349C18.8976 1.17941 18.8211 1.10292 18.727 1.05499C18.62 1.00049 18.48 1.00049 18.2 1.00049H6.66274C6.41815 1.00049 6.29586 1.00049 6.18077 1.02812C6.07873 1.05262 5.98119 1.09302 5.89172 1.14785C5.7908 1.20969 5.70432 1.29617 5.53137 1.46912L1.46863 5.53186C1.29568 5.70481 1.2092 5.79129 1.14736 5.8922C1.09253 5.98168 1.05213 6.07922 1.02763 6.18126C1 6.29634 1 6.41864 1 6.66323V18.2005C1 18.4805 1 18.6205 1.0545 18.7275C1.10243 18.8216 1.17892 18.8981 1.273 18.946C1.37996 19.0005 1.51997 19.0005 1.8 19.0005H13.3373C13.5818 19.0005 13.7041 19.0005 13.8192 18.9729C13.9213 18.9484 14.0188 18.908 14.1083 18.8531C14.2092 18.7913 14.2957 18.7048 14.4686 18.5319L18.5314 14.4691C18.7043 14.2962 18.7908 14.2097 18.8526 14.1088C18.9075 14.0193 18.9479 13.9218 18.9724 13.8197C19 13.7046 19 13.5823 19 13.3377Z" stroke="#FF5555" stroke-width="2" stroke-linecap="round" stroke-linejoin="round"/>
</svg>
